<svg width="138" height="42" viewBox="0 0 138 42" fill="none" xmlns="http://www.w3.org/2000/svg"><path d="M0 2.264h9.05V7.92h4.524V2.264h11.311V7.92h4.597V2.262h8.977v38.46H0V2.262zM2.262 38.46h33.935V4.526h-4.525v5.656h-9.05V4.526h-6.786v5.656h-9.05V4.526H2.263v33.935zM52.867 17.662v-6.619c0-.278.024-.642.07-1.091.046-.465.162-.914.347-1.347.2-.45.5-.828.901-1.138.401-.325.964-.488 1.688-.488.525 0 .925.116 1.203.349.293.232.509.518.647.859.14.34.216.697.232 1.068.03.372.046.697.046.975v7.432h1.965v-6.619c0-.34.031-.743.093-1.207.062-.48.193-.93.393-1.347.2-.418.486-.774.855-1.068.386-.295.902-.442 1.55-.442.478 0 .863.07 1.156.21.293.139.516.348.67.626.17.279.278.62.324 1.022.062.403.093.867.093 1.393v7.432h1.965V9.557c0-.356-.038-.75-.115-1.184a2.984 2.984 0 00-.509-1.231c-.247-.387-.617-.705-1.11-.952-.478-.263-1.118-.395-1.92-.395-.23 0-.5.023-.809.07a3.665 3.665 0 00-.97.301c-.34.155-.671.38-.995.674-.308.294-.578.681-.81 1.161h-.161a3.47 3.47 0 00-.393-.743 3.148 3.148 0 00-.648-.72 3.296 3.296 0 00-.948-.534c-.354-.14-.786-.21-1.295-.21-.231 0-.508.032-.832.094a3.35 3.35 0 00-.971.302 3.599 3.599 0 00-.925.65c-.278.279-.51.642-.694 1.091h-.093v-1.88h-1.965v11.61h1.965zM80.116 12.367v-.488c0-1.037-.147-1.935-.44-2.694-.292-.758-.693-1.385-1.202-1.88A4.778 4.778 0 0076.74 6.19a5.962 5.962 0 00-2.105-.372c-.786 0-1.51.14-2.173.418a4.756 4.756 0 00-1.734 1.185c-.494.51-.88 1.137-1.157 1.88-.277.728-.416 1.556-.416 2.485 0 .774.116 1.533.347 2.276a6.328 6.328 0 001.087 1.974 5.62 5.62 0 001.85 1.394c.755.34 1.642.51 2.659.51.987 0 1.896-.17 2.729-.51A6.468 6.468 0 0080 15.92l-.74-.743c-.324.279-.632.534-.925.766a4.913 4.913 0 01-.855.58 4.818 4.818 0 01-.925.372 4.282 4.282 0 01-1.04.117 5.71 5.71 0 01-1.388-.186 3.777 3.777 0 01-1.341-.72c-.417-.34-.764-.813-1.041-1.417-.277-.604-.416-1.378-.416-2.322h8.787zm-8.787-.929c0-.62.062-1.215.185-1.788.139-.588.339-1.107.601-1.556a3.28 3.28 0 011.04-1.068c.417-.279.91-.418 1.48-.418 1.095 0 1.943.433 2.544 1.3.617.852.925 2.028.925 3.53H71.33zM81.046 6.98v-.93h2.012V2.474h1.965V6.05h2.798v.93h-2.798v7.71c0 .185.008.402.023.65.016.232.062.456.139.673.077.201.193.372.347.51.17.14.4.21.694.21.37 0 .678-.14.924-.418a3.85 3.85 0 00.602-.906l1.087 1.115c-.756.758-1.611 1.138-2.567 1.138-.401 0-.794-.07-1.18-.21a3.121 3.121 0 01-1.04-.626 3.382 3.382 0 01-.717-1.115c-.185-.449-.277-.975-.277-1.579V6.979h-2.012zM89.948 6.05v11.612h1.966v-7.013c0-.635.07-1.17.208-1.603.154-.449.347-.813.578-1.091.231-.279.486-.48.763-.604a1.98 1.98 0 01.81-.186c.354 0 .678.116.97.348.31.233.533.45.671.65l.787-1.44a1.827 1.827 0 00-.51-.464 2.209 2.209 0 00-.577-.278 1.807 1.807 0 00-.532-.14 1.94 1.94 0 00-.347-.046c-.647 0-1.187.178-1.619.534-.431.356-.786.883-1.063 1.58h-.139V6.05h-1.966zM103.134 9.92h-6.382l2.623-2.94c.23-.278.476-.58.735-.905.268-.325.513-.669.735-1.031.222-.362.407-.738.555-1.129.148-.39.222-.79.222-1.198 0-.64-.171-1.152-.513-1.533-.333-.38-.763-.57-1.29-.57-.315 0-.579.06-.791.18-.204.121-.375.284-.514.488-.13.195-.226.427-.291.697a5.64 5.64 0 00-.139.822h-1.387c0-.39.078-.757.236-1.101.157-.344.374-.641.652-.892.287-.25.62-.446.999-.585.379-.149.79-.223 1.234-.223.5 0 .949.074 1.346.223.398.14.731.334.999.585.269.251.472.544.611.878.148.325.222.669.222 1.031 0 .455-.046.845-.139 1.17a3.29 3.29 0 01-.416.948 6.58 6.58 0 01-.736.948c-.296.334-.656.733-1.082 1.198L98.82 8.918h4.314V9.92zM50.902 41.852h1.965v-7.71h.093c.154.403.354.744.601 1.022.262.279.555.503.879.674.324.17.663.294 1.017.371.37.078.74.116 1.11.116.771 0 1.48-.139 2.128-.418a4.874 4.874 0 001.664-1.23 5.53 5.53 0 001.11-1.905c.262-.758.393-1.594.393-2.508 0-.929-.13-1.765-.393-2.508a5.53 5.53 0 00-1.11-1.904 4.505 4.505 0 00-1.664-1.231 5.082 5.082 0 00-2.128-.441c-1.834 0-3.037.712-3.607 2.136h-.093v-1.88h-1.965v17.416zm1.965-12.772c0-.511.078-.991.232-1.44.17-.465.4-.86.693-1.184.293-.341.632-.604 1.018-.79.4-.201.825-.302 1.272-.302.477 0 .932.093 1.364.279.447.17.832.449 1.156.836.324.387.578.89.763 1.51.2.619.3 1.362.3 2.229 0 .882-.1 1.633-.3 2.252-.185.62-.447 1.13-.786 1.533a3.029 3.029 0 01-1.133.86c-.432.17-.886.255-1.364.255-.432 0-.84-.085-1.226-.256a3.12 3.12 0 01-1.017-.79 4.432 4.432 0 01-.717-1.277c-.17-.495-.255-1.06-.255-1.695v-2.02zM63.932 24.435v11.612h1.966v-7.014c0-.634.07-1.169.208-1.602.154-.449.347-.813.578-1.091.231-.28.486-.48.763-.604a1.98 1.98 0 01.81-.186c.354 0 .678.116.97.348.31.233.533.45.671.65l.787-1.44a1.828 1.828 0 00-.51-.464 2.21 2.21 0 00-.577-.278 1.805 1.805 0 00-.532-.14 1.943 1.943 0 00-.347-.046c-.647 0-1.187.178-1.619.534-.431.356-.786.882-1.063 1.58h-.139v-1.859h-1.965zM82.104 30.752v-.488c0-1.037-.147-1.935-.44-2.694-.292-.758-.693-1.385-1.202-1.88a4.777 4.777 0 00-1.734-1.115 5.962 5.962 0 00-2.104-.372c-.787 0-1.511.14-2.174.418a4.756 4.756 0 00-1.734 1.184c-.494.511-.879 1.138-1.156 1.881-.278.728-.417 1.556-.417 2.485 0 .774.116 1.533.347 2.276a6.326 6.326 0 001.087 1.974 5.62 5.62 0 001.85 1.394c.755.34 1.642.51 2.66.51.986 0 1.895-.17 2.728-.51a6.47 6.47 0 002.173-1.51l-.74-.743c-.323.279-.632.534-.925.766a4.914 4.914 0 01-.855.58 4.818 4.818 0 01-.925.372 4.282 4.282 0 01-1.04.117c-.432 0-.895-.063-1.388-.186a3.777 3.777 0 01-1.341-.72c-.416-.34-.763-.813-1.04-1.417-.278-.604-.417-1.378-.417-2.322h8.787zm-8.787-.929c0-.62.062-1.215.185-1.788.139-.588.339-1.107.601-1.556a3.28 3.28 0 011.04-1.068c.417-.28.91-.418 1.48-.418 1.095 0 1.943.433 2.544 1.3.617.852.925 2.028.925 3.53h-6.775zM86.156 36.047v-6.619c0-.279.023-.642.069-1.091.046-.465.162-.914.347-1.347.2-.45.5-.828.902-1.138.4-.325.963-.488 1.688-.488.524 0 .925.116 1.202.348.293.233.509.52.648.86.138.34.216.696.23 1.068.032.372.047.697.047.975v7.432h1.966v-6.619c0-.34.03-.743.092-1.207.062-.48.193-.93.393-1.347.2-.418.486-.774.856-1.069.385-.294.902-.44 1.55-.44.477 0 .862.069 1.155.208.293.14.517.349.67.627.17.279.278.62.325 1.022.061.402.092.867.092 1.393v7.432h1.966v-8.105c0-.356-.039-.751-.116-1.184a2.984 2.984 0 00-.509-1.231c-.246-.387-.616-.705-1.11-.952-.478-.264-1.117-.395-1.919-.395-.231 0-.5.023-.81.07a3.666 3.666 0 00-.97.301c-.34.155-.671.38-.995.674-.308.294-.578.681-.81 1.161h-.161a3.464 3.464 0 00-.393-.743 3.148 3.148 0 00-.648-.72 3.296 3.296 0 00-.948-.534c-.354-.14-.786-.21-1.294-.21-.232 0-.51.032-.833.094a3.345 3.345 0 00-.971.302 3.597 3.597 0 00-.925.65c-.278.278-.509.642-.694 1.091h-.092v-1.88H84.19v11.61h1.966zM103.877 24.435v11.612h1.966V24.435h-1.966zm-.277-3.669c0 .34.123.635.37.883.246.247.539.371.878.371a1.2 1.2 0 00.879-.372c.247-.247.37-.541.37-.882 0-.34-.123-.635-.37-.882a1.2 1.2 0 00-.879-.372c-.339 0-.632.124-.878.372-.247.247-.37.541-.37.882zM109.325 24.435v7.548c0 .278.024.665.07 1.16.062.48.223.96.485 1.44.263.465.671.875 1.226 1.232.57.34 1.364.51 2.382.51.447.016.932-.077 1.457-.278.539-.186 1.079-.55 1.618-1.092l.37-.371h.093v1.463h1.965V24.435h-1.965v7.2c0 .603-.085 1.122-.255 1.555a3.342 3.342 0 01-.67 1.092 2.699 2.699 0 01-.971.627c-.37.14-.756.209-1.157.209-.647 0-1.156-.124-1.526-.372a2.798 2.798 0 01-.809-.906c-.17-.34-.27-.673-.301-.998a9.16 9.16 0 01-.046-.743v-7.664h-1.966zM123.802 36.047v-6.619c0-.279.023-.642.07-1.091.046-.465.161-.914.346-1.347.201-.45.501-.828.902-1.138.401-.325.964-.488 1.688-.488.524 0 .925.116 1.203.348.293.233.508.52.647.86.139.34.216.696.231 1.068.031.372.047.697.047.975v7.432h1.965v-6.619c0-.34.031-.743.093-1.207.061-.48.192-.93.393-1.347.2-.418.485-.774.855-1.069.386-.294.902-.44 1.55-.44.478 0 .863.069 1.156.208.293.14.516.349.67.627.17.279.278.62.324 1.022.062.402.093.867.093 1.393v7.432H138v-8.105c0-.356-.038-.751-.115-1.184a2.986 2.986 0 00-.509-1.231c-.247-.387-.617-.705-1.11-.952-.478-.264-1.118-.395-1.919-.395-.232 0-.501.023-.81.07a3.668 3.668 0 00-.971.301 3.9 3.9 0 00-.994.674c-.309.294-.578.681-.81 1.161h-.161a3.513 3.513 0 00-.393-.743 3.163 3.163 0 00-1.596-1.254c-.355-.14-.786-.21-1.295-.21-.231 0-.509.032-.832.094a3.35 3.35 0 00-.972.302 3.611 3.611 0 00-.925.65c-.277.278-.508.642-.693 1.091h-.093v-1.88h-1.965v11.61h1.965z" fill="#F5F3F1"/></svg>