<svg width="44" height="32" viewBox="0 0 44 32" fill="none" xmlns="http://www.w3.org/2000/svg"><path d="M0 .001h7.53v4.706h3.764V.002h9.412v4.705h3.824V0H32v32H0V.001zm1.882 30.118h28.236V1.884h-3.765V6.59h-7.53V1.884h-5.646V6.59h-7.53V1.884H1.882v28.235zM43.815 10.823h-6.429l2.641-3.155c.233-.3.48-.623.741-.972.27-.349.517-.718.74-1.106.224-.389.41-.793.56-1.211.149-.419.223-.848.223-1.286 0-.688-.172-1.236-.517-1.645a1.604 1.604 0 00-1.3-.613c-.316 0-.582.065-.796.195-.205.13-.377.304-.517.523-.13.21-.228.458-.294.747a6.41 6.41 0 00-.14.883H37.33a2.96 2.96 0 01.895-2.138c.288-.27.624-.479 1.006-.628.382-.16.796-.24 1.244-.24.503 0 .955.08 1.355.24.4.15.736.358 1.006.628.27.269.476.583.615.942.15.348.224.717.224 1.106 0 .488-.047.907-.14 1.256a3.653 3.653 0 01-.419 1.016 7.083 7.083 0 01-.74 1.017c-.299.359-.662.788-1.09 1.286l-1.818 2.078h4.347v1.077z" fill="#B58C67"/><path fill-rule="evenodd" clip-rule="evenodd" d="M44 11h-7l2.88-3.44c.232-.298.478-.62.737-.967l.002-.003c.265-.342.508-.704.727-1.086.219-.38.4-.774.546-1.183.143-.4.214-.81.214-1.228 0-.66-.165-1.165-.476-1.533l-.001-.002a1.416 1.416 0 00-1.154-.545c-.29 0-.519.059-.697.166-.179.113-.332.267-.459.466-.117.19-.209.42-.27.693v.001c-.064.271-.11.557-.137.859l-.014.162h-1.753v-.177a3.13 3.13 0 01.948-2.264l.002-.002c.306-.285.661-.506 1.064-.664A3.39 3.39 0 0140.475 0c.523 0 .998.083 1.424.252.423.158.78.38 1.071.67.288.286.506.62.654 1 .158.37.236.76.236 1.17 0 .498-.047.932-.145 1.299-.088.365-.234.72-.438 1.062-.192.33-.446.676-.758 1.04-.298.36-.662.79-1.09 1.288h-.002L39.865 9.57H44V11zm-4.532-1.254l1.817-2.078c.429-.498.792-.927 1.09-1.286.308-.359.555-.698.741-1.017.196-.328.335-.667.42-1.016.092-.35.139-.768.139-1.256 0-.389-.075-.758-.224-1.107a2.695 2.695 0 00-.615-.941A2.779 2.779 0 0041.83.417a3.64 3.64 0 00-1.355-.24c-.448 0-.862.08-1.244.24-.382.15-.718.358-1.006.628a2.931 2.931 0 00-.895 2.138h1.398a6.41 6.41 0 01.14-.883c.065-.289.163-.538.293-.747.14-.22.312-.394.517-.523.214-.13.48-.195.797-.195.53 0 .964.205 1.3.613.344.409.516.957.516 1.645 0 .438-.074.867-.223 1.286-.15.418-.336.822-.56 1.21-.223.39-.47.758-.74 1.107-.26.349-.508.673-.74.972l-2.642 3.155h6.429V9.746h-4.347z" fill="#B58C67"/></svg>