<?xml version="1.0" standalone="no"?>
<!DOCTYPE svg PUBLIC "-//W3C//DTD SVG 20010904//EN"
 "http://www.w3.org/TR/2001/REC-SVG-20010904/DTD/svg10.dtd">
<svg version="1.0" xmlns="http://www.w3.org/2000/svg"
 width="384.000000pt" height="384.000000pt" viewBox="0 0 384.000000 384.000000"
 preserveAspectRatio="xMidYMid meet">
<metadata>
Created by potrace 1.14, written by Peter Selinger 2001-2017
</metadata>
<g transform="translate(0.000000,384.000000) scale(0.100000,-0.100000)"
fill="#000000" stroke="none">
<path d="M0 1920 l0 -1920 1920 0 1920 0 0 1920 0 1920 -448 0 -448 0 0 -282
0 -283 -220 -1 c-120 0 -224 1 -229 3 -6 2 -10 105 -10 283 l1 280 -566 0
-565 0 0 -280 c0 -178 -4 -281 -10 -283 -5 -2 -107 -3 -225 -3 l-215 1 0 280
0 280 -453 3 -452 2 0 -1920z m666 1691 c8 -1 11 -82 12 -268 0 -148 1 -274 1
-280 1 -10 98 -13 451 -13 l450 0 2 282 3 282 310 0 c171 1 323 -1 338 -3 28
-3 28 -5 27 -65 -1 -33 -1 -159 -1 -278 l1 -218 450 0 c353 0 450 3 451 13 0
6 2 133 2 281 l2 270 200 1 c110 0 211 -2 224 -5 l25 -6 0 -1687 1 -1687 -25
-1 c-116 -4 -3321 -3 -3339 1 l-25 6 0 1678 c-1 923 1 1681 4 1685 3 5 11 10
18 12 10 3 382 3 418 0z"/>
</g>
</svg>
