<svg version="1.0" xmlns="http://www.w3.org/2000/svg" width="512" height="512" viewBox="0 0 384 384"><path d="M0 192v192h384V0h-89.6v56.5l-22 .1c-12 0-22.4-.1-22.9-.3-.6-.2-1-10.5-1-28.3l.1-28H135.5v28c0 17.8-.4 28.1-1 28.3-.5.2-10.7.3-22.5.3l-21.5-.1V.5L45.2.2 0 0v192zM66.6 22.9c.8.1 1.1 8.2 1.2 26.8 0 14.8.1 27.4.1 28 .1 1 9.8 1.3 45.1 1.3h45l.2-28.2.3-28.2h31c17.1-.1 32.3.1 33.8.3 2.8.3 2.8.5 2.7 6.5-.1 3.3-.1 15.9-.1 27.8L226 79h45c35.3 0 45-.3 45.1-1.3 0-.6.2-13.3.2-28.1l.2-27 20-.1c11 0 21.1.2 22.4.5l2.5.6v168.7l.1 168.7-2.5.1c-11.6.4-332.1.3-333.9-.1l-2.5-.6V192.6c-.1-92.3.1-168.1.4-168.5.3-.5 1.1-1 1.8-1.2 1-.3 38.2-.3 41.8 0z"/></svg>